<svg width="21" height="23" viewBox="0 0 21 23" fill="#4e4e4e" xmlns="http://www.w3.org/2000/svg">
<path d="M18.4692 15.4339L19.7675 15.8396V14.4795V12.7397V12.1855L19.2975 11.8917L12.8087 7.83624V3.60629C12.8087 2.33203 11.7782 1.30151 10.5039 1.30151C9.22964 1.30151 8.19913 2.33203 8.19913 3.60629V7.83624L1.7103 11.8917L1.2403 12.1855V12.7397V14.4795V15.8396L2.53858 15.4339L8.19913 13.665V16.589L6.85942 17.5938L6.45942 17.8938V18.3938V19.6986V21.0243L7.73414 20.6601L10.5039 19.8687L13.2737 20.6601L14.5484 21.0243V19.6986V18.3938V17.8938L14.1484 17.5938L12.8087 16.589V13.665L18.4692 15.4339Z" fill="white" stroke="#808080" stroke-width="2"/>
</svg>
